<?xml version="1.0" encoding="UTF-8" standalone="no"?>
<!DOCTYPE svg PUBLIC "-//W3C//DTD SVG 1.1//EN"
 "http://www.w3.org/Graphics/SVG/1.1/DTD/svg11.dtd">
<!-- Generated by graphviz version 12.2.1 (20241206.2353)
 -->
<!-- Pages: 1 -->
<svg width="200pt" height="91pt"
 viewBox="0.00 0.00 199.50 91.49" xmlns="http://www.w3.org/2000/svg" xmlns:xlink="http://www.w3.org/1999/xlink">
<g id="graph0" class="graph" transform="scale(1 1) rotate(0) translate(4 87.49)">
<polygon fill="white" stroke="none" points="-4,4 -4,-87.49 195.5,-87.49 195.5,4 -4,4"/>
<!-- &#45;1 -->
<g id="node1" class="node">
<title>&#45;1</title>
<polygon fill="lightgray" stroke="black" points="23.5,-83.49 0,-83.49 0,-64.99 23.5,-64.99 23.5,-83.49"/>
<text text-anchor="middle" x="11.75" y="-70.94" font-family="Times,serif" font-size="9.00">&#45;1</text>
</g>
<!-- 0 -->
<g id="node6" class="node">
<title>0</title>
<ellipse fill="lightblue" stroke="black" cx="95.75" cy="-14.5" rx="14.5" ry="14.5"/>
<text text-anchor="middle" x="95.75" y="-11.2" font-family="Times,serif" font-size="9.00">0</text>
</g>
<!-- &#45;1&#45;&gt;0 -->
<g id="edge1" class="edge">
<title>&#45;1&#45;&gt;0</title>
<path fill="none" stroke="green" stroke-width="0.28" d="M23.79,-64.97C37.34,-55.65 59.57,-40.37 75.74,-29.25"/>
<polygon fill="green" stroke="green" stroke-width="0.28" points="77.4,-32.36 83.66,-23.81 73.44,-26.59 77.4,-32.36"/>
</g>
<!-- &#45;2 -->
<g id="node2" class="node">
<title>&#45;2</title>
<polygon fill="lightgray" stroke="black" points="65.5,-83.49 42,-83.49 42,-64.99 65.5,-64.99 65.5,-83.49"/>
<text text-anchor="middle" x="53.75" y="-70.94" font-family="Times,serif" font-size="9.00">&#45;2</text>
</g>
<!-- &#45;2&#45;&gt;0 -->
<g id="edge2" class="edge">
<title>&#45;2&#45;&gt;0</title>
<path fill="none" stroke="green" stroke-width="0.17" d="M59.95,-64.72C65.59,-56.96 74.15,-45.2 81.48,-35.12"/>
<polygon fill="green" stroke="green" stroke-width="0.17" points="84.3,-37.19 87.35,-27.04 78.64,-33.07 84.3,-37.19"/>
</g>
<!-- &#45;3 -->
<g id="node3" class="node">
<title>&#45;3</title>
<polygon fill="lightgray" stroke="black" points="107.5,-83.49 84,-83.49 84,-64.99 107.5,-64.99 107.5,-83.49"/>
<text text-anchor="middle" x="95.75" y="-70.94" font-family="Times,serif" font-size="9.00">&#45;3</text>
</g>
<!-- &#45;3&#45;&gt;0 -->
<g id="edge3" class="edge">
<title>&#45;3&#45;&gt;0</title>
<path fill="none" stroke="red" stroke-width="0.17" d="M95.75,-64.72C95.75,-58.05 95.75,-48.42 95.75,-39.45"/>
<polygon fill="red" stroke="red" stroke-width="0.17" points="99.25,-39.69 95.75,-29.69 92.25,-39.69 99.25,-39.69"/>
</g>
<!-- &#45;4 -->
<g id="node4" class="node">
<title>&#45;4</title>
<polygon fill="lightgray" stroke="black" points="149.5,-83.49 126,-83.49 126,-64.99 149.5,-64.99 149.5,-83.49"/>
<text text-anchor="middle" x="137.75" y="-70.94" font-family="Times,serif" font-size="9.00">&#45;4</text>
</g>
<!-- &#45;4&#45;&gt;0 -->
<g id="edge4" class="edge">
<title>&#45;4&#45;&gt;0</title>
<path fill="none" stroke="red" stroke-width="0.57" d="M131.55,-64.72C125.96,-57.03 117.52,-45.43 110.24,-35.42"/>
<polygon fill="red" stroke="red" stroke-width="0.57" points="113.22,-33.56 104.5,-27.53 107.56,-37.68 113.22,-33.56"/>
</g>
<!-- &#45;5 -->
<g id="node5" class="node">
<title>&#45;5</title>
<polygon fill="lightgray" stroke="black" points="191.5,-83.49 168,-83.49 168,-64.99 191.5,-64.99 191.5,-83.49"/>
<text text-anchor="middle" x="179.75" y="-70.94" font-family="Times,serif" font-size="9.00">&#45;5</text>
</g>
<!-- &#45;5&#45;&gt;0 -->
<g id="edge5" class="edge">
<title>&#45;5&#45;&gt;0</title>
<path fill="none" stroke="red" stroke-width="0.32" d="M167.71,-64.97C154.16,-55.65 131.93,-40.37 115.76,-29.25"/>
<polygon fill="red" stroke="red" stroke-width="0.32" points="118.12,-26.62 107.89,-23.84 114.15,-32.39 118.12,-26.62"/>
</g>
</g>
</svg>
