<?xml version="1.0" encoding="UTF-8" standalone="no"?>
<!DOCTYPE svg PUBLIC "-//W3C//DTD SVG 1.1//EN"
 "http://www.w3.org/Graphics/SVG/1.1/DTD/svg11.dtd">
<!-- Generated by graphviz version 12.2.1 (20241206.2353)
 -->
<!-- Pages: 1 -->
<svg width="594pt" height="241pt"
 viewBox="0.00 0.00 594.46 240.57" xmlns="http://www.w3.org/2000/svg" xmlns:xlink="http://www.w3.org/1999/xlink">
<g id="graph0" class="graph" transform="scale(1 1) rotate(0) translate(4 236.57)">
<polygon fill="white" stroke="none" points="-4,4 -4,-236.57 590.46,-236.57 590.46,4 -4,4"/>
<!-- &#45;1 -->
<g id="node1" class="node">
<title>&#45;1</title>
<polygon fill="lightgray" stroke="black" points="462.46,-232.57 438.96,-232.57 438.96,-214.07 462.46,-214.07 462.46,-232.57"/>
<text text-anchor="middle" x="450.71" y="-220.02" font-family="Times,serif" font-size="9.00">&#45;1</text>
</g>
<!-- 90 -->
<g id="node10" class="node">
<title>90</title>
<ellipse fill="white" stroke="black" cx="314.71" cy="-82.67" rx="17.68" ry="17.68"/>
<text text-anchor="middle" x="314.71" y="-79.37" font-family="Times,serif" font-size="9.00">90</text>
</g>
<!-- &#45;1&#45;&gt;90 -->
<g id="edge1" class="edge">
<title>&#45;1&#45;&gt;90</title>
<path fill="none" stroke="green" stroke-width="0.31" d="M442.52,-213.72C427.7,-198.18 395.38,-164.42 367.71,-136.35 356.68,-125.15 344.22,-112.76 334.16,-102.81"/>
<polygon fill="green" stroke="green" stroke-width="0.31" points="336.9,-100.6 327.32,-96.06 331.98,-105.58 336.9,-100.6"/>
</g>
<!-- 91 -->
<g id="node11" class="node">
<title>91</title>
<ellipse fill="white" stroke="black" cx="284.71" cy="-157.21" rx="17.68" ry="17.68"/>
<text text-anchor="middle" x="284.71" y="-153.91" font-family="Times,serif" font-size="9.00">91</text>
</g>
<!-- &#45;1&#45;&gt;91 -->
<g id="edge2" class="edge">
<title>&#45;1&#45;&gt;91</title>
<path fill="none" stroke="green" stroke-width="0.29" d="M438.5,-217.6C411.67,-207.24 347.07,-182.29 310.71,-168.25"/>
<polygon fill="green" stroke="green" stroke-width="0.29" points="312.26,-165.09 301.67,-164.76 309.74,-171.62 312.26,-165.09"/>
</g>
<!-- 92 -->
<g id="node12" class="node">
<title>92</title>
<ellipse fill="white" stroke="black" cx="490.71" cy="-157.21" rx="17.68" ry="17.68"/>
<text text-anchor="middle" x="490.71" y="-153.91" font-family="Times,serif" font-size="9.00">92</text>
</g>
<!-- &#45;1&#45;&gt;92 -->
<g id="edge3" class="edge">
<title>&#45;1&#45;&gt;92</title>
<path fill="none" stroke="red" stroke-width="0.22" d="M456.1,-213.67C461.29,-205.36 469.35,-192.45 476.38,-181.17"/>
<polygon fill="red" stroke="red" stroke-width="0.22" points="479.23,-183.21 481.56,-172.88 473.29,-179.51 479.23,-183.21"/>
</g>
<!-- 93 -->
<g id="node13" class="node">
<title>93</title>
<ellipse fill="white" stroke="black" cx="444.71" cy="-82.67" rx="17.68" ry="17.68"/>
<text text-anchor="middle" x="444.71" y="-79.37" font-family="Times,serif" font-size="9.00">93</text>
</g>
<!-- &#45;1&#45;&gt;93 -->
<g id="edge4" class="edge">
<title>&#45;1&#45;&gt;93</title>
<path fill="none" stroke="red" stroke-width="0.42" d="M462.84,-218.38C478.78,-212.48 506.09,-199.67 517.71,-178.07 526.49,-161.74 526.15,-152.85 517.71,-136.35 507.83,-117.04 487.21,-103.19 470.4,-94.55"/>
<polygon fill="red" stroke="red" stroke-width="0.42" points="472.16,-91.51 461.63,-90.34 469.13,-97.82 472.16,-91.51"/>
</g>
<!-- &#45;2 -->
<g id="node2" class="node">
<title>&#45;2</title>
<polygon fill="lightgray" stroke="black" points="523.46,-232.57 499.96,-232.57 499.96,-214.07 523.46,-214.07 523.46,-232.57"/>
<text text-anchor="middle" x="511.71" y="-220.02" font-family="Times,serif" font-size="9.00">&#45;2</text>
</g>
<!-- &#45;2&#45;&gt;90 -->
<g id="edge5" class="edge">
<title>&#45;2&#45;&gt;90</title>
<path fill="none" stroke="green" stroke-width="0.26" d="M515.72,-213.67C522.87,-196.84 535.47,-159.3 517.71,-136.35 506.87,-122.34 395.22,-99.19 342.28,-88.89"/>
<polygon fill="green" stroke="green" stroke-width="0.26" points="343.09,-85.48 332.6,-87.02 341.76,-92.35 343.09,-85.48"/>
</g>
<!-- &#45;2&#45;&gt;91 -->
<g id="edge6" class="edge">
<title>&#45;2&#45;&gt;91</title>
<path fill="none" stroke="green" stroke-width="0.39" d="M499.5,-218.87C464.16,-208.89 361.09,-179.78 311.7,-165.83"/>
<polygon fill="green" stroke="green" stroke-width="0.39" points="312.89,-162.53 302.31,-163.18 310.99,-169.26 312.89,-162.53"/>
</g>
<!-- &#45;2&#45;&gt;92 -->
<g id="edge7" class="edge">
<title>&#45;2&#45;&gt;92</title>
<path fill="none" stroke="red" stroke-width="0.21" d="M508.88,-213.67C506.38,-206.06 502.62,-194.57 499.16,-184.01"/>
<polygon fill="red" stroke="red" stroke-width="0.21" points="502.53,-183.06 496.1,-174.65 495.88,-185.24 502.53,-183.06"/>
</g>
<!-- &#45;2&#45;&gt;93 -->
<g id="edge8" class="edge">
<title>&#45;2&#45;&gt;93</title>
<path fill="none" stroke="red" stroke-width="0.25" d="M518.07,-213.71C529.15,-197.57 549.47,-162.08 534.71,-136.35 521.32,-113 493.13,-99 471.84,-91.37"/>
<polygon fill="red" stroke="red" stroke-width="0.25" points="473,-88.06 462.4,-88.24 470.79,-94.71 473,-88.06"/>
</g>
<!-- &#45;3 -->
<g id="node3" class="node">
<title>&#45;3</title>
<polygon fill="lightgray" stroke="black" points="233.46,-232.57 209.96,-232.57 209.96,-214.07 233.46,-214.07 233.46,-232.57"/>
<text text-anchor="middle" x="221.71" y="-220.02" font-family="Times,serif" font-size="9.00">&#45;3</text>
</g>
<!-- &#45;3&#45;&gt;90 -->
<g id="edge9" class="edge">
<title>&#45;3&#45;&gt;90</title>
<path fill="none" stroke="green" stroke-width="0.12" d="M211.83,-213.63C203.32,-205.43 191.66,-192.31 186.71,-178.07 180.62,-160.55 176.39,-151.75 186.71,-136.35 208.96,-103.13 256.36,-90.84 286.81,-86.3"/>
<polygon fill="green" stroke="green" stroke-width="0.12" points="287.17,-89.79 296.63,-85.02 286.26,-82.85 287.17,-89.79"/>
</g>
<!-- &#45;3&#45;&gt;91 -->
<g id="edge10" class="edge">
<title>&#45;3&#45;&gt;91</title>
<path fill="none" stroke="green" stroke-width="0.28" d="M230.21,-213.67C239.24,-204.47 253.83,-189.63 265.65,-177.61"/>
<polygon fill="green" stroke="green" stroke-width="0.28" points="268.11,-180.1 272.62,-170.51 263.11,-175.19 268.11,-180.1"/>
</g>
<!-- &#45;3&#45;&gt;92 -->
<g id="edge11" class="edge">
<title>&#45;3&#45;&gt;92</title>
<path fill="none" stroke="red" stroke-width="0.54" d="M233.62,-219.48C273.83,-209.89 405.33,-178.55 463.08,-164.79"/>
<polygon fill="red" stroke="red" stroke-width="0.54" points="463.58,-168.27 472.5,-162.55 461.96,-161.46 463.58,-168.27"/>
</g>
<!-- &#45;3&#45;&gt;93 -->
<g id="edge12" class="edge">
<title>&#45;3&#45;&gt;93</title>
<path fill="none" stroke="red" stroke-width="0.2" d="M222.8,-213.83C225.47,-196.59 233.96,-157.36 257.71,-136.35 281.44,-115.35 371.05,-96.8 417.06,-88.42"/>
<polygon fill="red" stroke="red" stroke-width="0.2" points="417.45,-91.9 426.67,-86.7 416.21,-85.01 417.45,-91.9"/>
</g>
<!-- &#45;4 -->
<g id="node4" class="node">
<title>&#45;4</title>
<polygon fill="lightgray" stroke="black" points="117.46,-232.57 93.96,-232.57 93.96,-214.07 117.46,-214.07 117.46,-232.57"/>
<text text-anchor="middle" x="105.71" y="-220.02" font-family="Times,serif" font-size="9.00">&#45;4</text>
</g>
<!-- 1 -->
<g id="node9" class="node">
<title>1</title>
<ellipse fill="lightblue" stroke="black" cx="314.71" cy="-14.5" rx="14.5" ry="14.5"/>
<text text-anchor="middle" x="314.71" y="-11.2" font-family="Times,serif" font-size="9.00">1</text>
</g>
<!-- &#45;4&#45;&gt;1 -->
<g id="edge36" class="edge">
<title>&#45;4&#45;&gt;1</title>
<path fill="none" stroke="green" stroke-width="0.16" d="M93.7,-221C72.08,-217.91 27.05,-208.02 7.71,-178.07 -2.35,-162.49 -2.73,-151.67 7.71,-136.35 73.42,-39.85 229.09,-20.4 289.83,-16.48"/>
<polygon fill="green" stroke="green" stroke-width="0.16" points="289.99,-19.98 299.78,-15.93 289.6,-12.99 289.99,-19.98"/>
</g>
<!-- &#45;4&#45;&gt;90 -->
<g id="edge13" class="edge">
<title>&#45;4&#45;&gt;90</title>
<path fill="none" stroke="green" stroke-width="0.15" stroke-dasharray="1,5" d="M103.21,-213.57C98.92,-196.57 92.29,-158.75 110.71,-136.35 132.99,-109.24 236.45,-93.18 286.9,-86.83"/>
<polygon fill="green" stroke="green" stroke-width="0.15" points="287.09,-90.33 296.59,-85.65 286.24,-83.38 287.09,-90.33"/>
</g>
<!-- &#45;4&#45;&gt;91 -->
<g id="edge14" class="edge">
<title>&#45;4&#45;&gt;91</title>
<path fill="none" stroke="green" stroke-width="0.25" d="M117.73,-218.01C146.37,-207.75 219.16,-181.68 258.51,-167.59"/>
<polygon fill="green" stroke="green" stroke-width="0.25" points="259.61,-170.91 267.85,-164.25 257.25,-164.32 259.61,-170.91"/>
</g>
<!-- &#45;4&#45;&gt;92 -->
<g id="edge15" class="edge">
<title>&#45;4&#45;&gt;92</title>
<path fill="none" stroke="red" stroke-width="0.33" d="M117.65,-220.33C170.75,-211.49 386.12,-175.62 463.15,-162.8"/>
<polygon fill="red" stroke="red" stroke-width="0.33" points="463.28,-166.32 472.57,-161.23 462.13,-159.42 463.28,-166.32"/>
</g>
<!-- &#45;4&#45;&gt;93 -->
<g id="edge16" class="edge">
<title>&#45;4&#45;&gt;93</title>
<path fill="none" stroke="green" stroke-width="0.22" d="M115.14,-213.83C134.8,-196.6 182.18,-157.38 228.71,-136.35 292.61,-107.46 374.6,-93.04 416.82,-87.11"/>
<polygon fill="green" stroke="green" stroke-width="0.22" points="417.14,-90.59 426.58,-85.79 416.2,-83.66 417.14,-90.59"/>
</g>
<!-- 222 -->
<g id="node14" class="node">
<title>222</title>
<ellipse fill="white" stroke="black" cx="37.71" cy="-157.21" rx="20.86" ry="20.86"/>
<text text-anchor="middle" x="37.71" y="-153.91" font-family="Times,serif" font-size="9.00">222</text>
</g>
<!-- &#45;4&#45;&gt;222 -->
<g id="edge37" class="edge">
<title>&#45;4&#45;&gt;222</title>
<path fill="none" stroke="green" stroke-width="0.31" d="M96.54,-213.67C87.23,-204.9 72.47,-190.98 60.06,-179.28"/>
<polygon fill="green" stroke="green" stroke-width="0.31" points="62.73,-176.98 53.05,-172.67 57.92,-182.07 62.73,-176.98"/>
</g>
<!-- &#45;5 -->
<g id="node5" class="node">
<title>&#45;5</title>
<polygon fill="lightgray" stroke="black" points="319.46,-232.57 295.96,-232.57 295.96,-214.07 319.46,-214.07 319.46,-232.57"/>
<text text-anchor="middle" x="307.71" y="-220.02" font-family="Times,serif" font-size="9.00">&#45;5</text>
</g>
<!-- &#45;5&#45;&gt;90 -->
<g id="edge17" class="edge">
<title>&#45;5&#45;&gt;90</title>
<path fill="none" stroke="red" stroke-width="0.43" d="M295.56,-215.72C283.4,-208.36 265.42,-195.19 257.71,-178.07 250.1,-161.16 250.28,-153.33 257.71,-136.35 264.53,-120.75 278.5,-107.72 290.9,-98.52"/>
<polygon fill="red" stroke="red" stroke-width="0.43" points="292.79,-101.47 299,-92.88 288.79,-95.72 292.79,-101.47"/>
</g>
<!-- &#45;5&#45;&gt;91 -->
<g id="edge18" class="edge">
<title>&#45;5&#45;&gt;91</title>
<path fill="none" stroke="red" stroke-width="0.26" d="M304.61,-213.67C301.88,-206.06 297.75,-194.57 293.97,-184.01"/>
<polygon fill="red" stroke="red" stroke-width="0.26" points="297.3,-182.94 290.63,-174.71 290.71,-185.31 297.3,-182.94"/>
</g>
<!-- &#45;5&#45;&gt;92 -->
<g id="edge19" class="edge">
<title>&#45;5&#45;&gt;92</title>
<path fill="none" stroke="green" stroke-width="0.51" d="M319.72,-218.11C348.84,-207.91 423.8,-181.65 464.12,-167.52"/>
<polygon fill="green" stroke="green" stroke-width="0.51" points="465.03,-170.91 473.31,-164.3 462.72,-164.3 465.03,-170.91"/>
</g>
<!-- &#45;5&#45;&gt;93 -->
<g id="edge20" class="edge">
<title>&#45;5&#45;&gt;93</title>
<path fill="none" stroke="green" stroke-width="0.15" d="M316.28,-213.64C337.99,-191.67 395.56,-133.41 425.7,-102.91"/>
<polygon fill="green" stroke="green" stroke-width="0.15" points="428.04,-105.52 432.58,-95.95 423.06,-100.6 428.04,-105.52"/>
</g>
<!-- &#45;6 -->
<g id="node6" class="node">
<title>&#45;6</title>
<polygon fill="lightgray" stroke="black" points="400.46,-232.57 376.96,-232.57 376.96,-214.07 400.46,-214.07 400.46,-232.57"/>
<text text-anchor="middle" x="388.71" y="-220.02" font-family="Times,serif" font-size="9.00">&#45;6</text>
</g>
<!-- &#45;6&#45;&gt;90 -->
<g id="edge21" class="edge">
<title>&#45;6&#45;&gt;90</title>
<path fill="none" stroke="red" stroke-width="0.29" d="M384.08,-213.64C372.95,-192.8 344.39,-139.28 327.59,-107.8"/>
<polygon fill="red" stroke="red" stroke-width="0.29" points="330.79,-106.37 322.99,-99.19 324.61,-109.66 330.79,-106.37"/>
</g>
<!-- &#45;6&#45;&gt;91 -->
<g id="edge22" class="edge">
<title>&#45;6&#45;&gt;91</title>
<path fill="none" stroke="green" stroke-width="0.2" d="M376.78,-214.96C360.07,-204.66 329.34,-185.72 308,-172.57"/>
<polygon fill="green" stroke="green" stroke-width="0.2" points="310.11,-169.75 299.76,-167.49 306.44,-175.71 310.11,-169.75"/>
</g>
<!-- &#45;6&#45;&gt;92 -->
<g id="edge23" class="edge">
<title>&#45;6&#45;&gt;92</title>
<path fill="none" stroke="red" stroke-width="0.66" d="M400.81,-214.71C417.03,-204.52 446.17,-186.2 466.87,-173.19"/>
<polygon fill="red" stroke="red" stroke-width="0.66" points="468.54,-176.27 475.15,-167.99 464.82,-170.35 468.54,-176.27"/>
</g>
<!-- &#45;6&#45;&gt;93 -->
<g id="edge24" class="edge">
<title>&#45;6&#45;&gt;93</title>
<path fill="none" stroke="green" stroke-width="0.31" d="M392.21,-213.64C400.55,-192.99 421.84,-140.29 434.6,-108.7"/>
<polygon fill="green" stroke="green" stroke-width="0.31" points="437.74,-110.26 438.24,-99.68 431.25,-107.64 437.74,-110.26"/>
</g>
<!-- &#45;7 -->
<g id="node7" class="node">
<title>&#45;7</title>
<polygon fill="lightgray" stroke="black" points="586.46,-232.57 562.96,-232.57 562.96,-214.07 586.46,-214.07 586.46,-232.57"/>
<text text-anchor="middle" x="574.71" y="-220.02" font-family="Times,serif" font-size="9.00">&#45;7</text>
</g>
<!-- &#45;7&#45;&gt;90 -->
<g id="edge25" class="edge">
<title>&#45;7&#45;&gt;90</title>
<path fill="none" stroke="red" stroke-width="0.21" d="M573.48,-213.73C570.51,-196.33 561.3,-156.8 536.71,-136.35 521.69,-123.85 397.97,-99.33 342.02,-88.74"/>
<polygon fill="red" stroke="red" stroke-width="0.21" points="342.88,-85.34 332.41,-86.93 341.59,-92.22 342.88,-85.34"/>
</g>
<!-- &#45;7&#45;&gt;92 -->
<g id="edge26" class="edge">
<title>&#45;7&#45;&gt;92</title>
<path fill="none" stroke="green" stroke-width="0.32" d="M563.38,-213.67C550.41,-203.77 528.87,-187.33 512.6,-174.92"/>
<polygon fill="green" stroke="green" stroke-width="0.32" points="515.11,-172.43 505.04,-169.14 510.86,-177.99 515.11,-172.43"/>
</g>
<!-- &#45;7&#45;&gt;93 -->
<g id="edge27" class="edge">
<title>&#45;7&#45;&gt;93</title>
<path fill="none" stroke="green" stroke-width="0.33" d="M574.66,-213.71C574.13,-196.94 570.73,-159.51 551.71,-136.35 531.34,-111.53 496.39,-97.45 472,-90.21"/>
<polygon fill="green" stroke="green" stroke-width="0.33" points="473,-86.85 462.43,-87.56 471.13,-93.6 473,-86.85"/>
</g>
<!-- 0 -->
<g id="node8" class="node">
<title>0</title>
<ellipse fill="lightblue" stroke="black" cx="402.71" cy="-14.5" rx="14.5" ry="14.5"/>
<text text-anchor="middle" x="402.71" y="-11.2" font-family="Times,serif" font-size="9.00">0</text>
</g>
<!-- 90&#45;&gt;0 -->
<g id="edge28" class="edge">
<title>90&#45;&gt;0</title>
<path fill="none" stroke="red" stroke-width="0.77" d="M328.46,-71.33C342.93,-60.45 365.85,-43.21 382.4,-30.77"/>
<polygon fill="red" stroke="red" stroke-width="0.77" points="384.48,-33.59 390.36,-24.78 380.27,-27.99 384.48,-33.59"/>
</g>
<!-- 90&#45;&gt;1 -->
<g id="edge29" class="edge">
<title>90&#45;&gt;1</title>
<path fill="none" stroke="green" stroke-width="0.34" d="M314.71,-64.63C314.71,-56.96 314.71,-47.77 314.71,-39.43"/>
<polygon fill="green" stroke="green" stroke-width="0.34" points="318.21,-39.66 314.71,-29.66 311.21,-39.66 318.21,-39.66"/>
</g>
<!-- 91&#45;&gt;0 -->
<g id="edge30" class="edge">
<title>91&#45;&gt;0</title>
<path fill="none" stroke="green" stroke-width="0.12" d="M297.56,-144.8C309.54,-133.9 327.63,-116.75 341.71,-100.35 359.72,-79.36 377.91,-53.29 389.68,-35.62"/>
<polygon fill="green" stroke="green" stroke-width="0.12" points="392.53,-37.65 395.11,-27.37 386.69,-33.8 392.53,-37.65"/>
</g>
<!-- 91&#45;&gt;1 -->
<g id="edge31" class="edge">
<title>91&#45;&gt;1</title>
<path fill="none" stroke="green" stroke-width="0.46" d="M282.97,-139.38C281.57,-120.82 280.83,-90.21 287.71,-64.99 290.51,-54.7 295.83,-44.2 301,-35.53"/>
<polygon fill="green" stroke="green" stroke-width="0.46" points="303.87,-37.54 306.27,-27.22 297.96,-33.79 303.87,-37.54"/>
</g>
<!-- 92&#45;&gt;0 -->
<g id="edge32" class="edge">
<title>92&#45;&gt;0</title>
<path fill="none" stroke="red" stroke-width="0.19" d="M490.77,-139.36C490.08,-119.93 486.53,-87.77 471.71,-64.99 460.32,-47.49 440.42,-34.21 424.91,-25.83"/>
<polygon fill="red" stroke="red" stroke-width="0.19" points="426.68,-22.81 416.18,-21.38 423.5,-29.04 426.68,-22.81"/>
</g>
<!-- 92&#45;&gt;1 -->
<g id="edge33" class="edge">
<title>92&#45;&gt;1</title>
<path fill="none" stroke="red" stroke-width="0.12" d="M476.87,-145.85C462.1,-134.75 438.08,-116.52 417.71,-100.35 387.73,-76.54 353.54,-48.12 333.07,-30.95"/>
<polygon fill="red" stroke="red" stroke-width="0.12" points="335.48,-28.41 325.57,-24.66 330.98,-33.77 335.48,-28.41"/>
</g>
<!-- 92&#45;&gt;93 -->
<g id="edge39" class="edge">
<title>92&#45;&gt;93</title>
<path fill="none" stroke="red" stroke-width="0.18" d="M481.62,-141.88C475.19,-131.74 466.45,-117.95 459.08,-106.33"/>
<polygon fill="red" stroke="red" stroke-width="0.18" points="462.24,-104.78 453.93,-98.21 456.33,-108.53 462.24,-104.78"/>
</g>
<!-- 93&#45;&gt;0 -->
<g id="edge34" class="edge">
<title>93&#45;&gt;0</title>
<path fill="none" stroke="green" stroke-width="0.36" d="M435.6,-67.31C429.76,-58.11 422.1,-46.04 415.63,-35.86"/>
<polygon fill="green" stroke="green" stroke-width="0.36" points="418.73,-34.2 410.41,-27.64 412.82,-37.95 418.73,-34.2"/>
</g>
<!-- 93&#45;&gt;1 -->
<g id="edge35" class="edge">
<title>93&#45;&gt;1</title>
<path fill="none" stroke="green" stroke-width="0.11" d="M429.1,-73.49C423.9,-70.77 418.06,-67.74 412.71,-64.99 386.48,-51.53 356.16,-36.27 336.28,-26.29"/>
<polygon fill="green" stroke="green" stroke-width="0.11" points="338.09,-23.28 327.58,-21.93 334.95,-29.54 338.09,-23.28"/>
</g>
<!-- 222&#45;&gt;90 -->
<g id="edge38" class="edge">
<title>222&#45;&gt;90</title>
<path fill="none" stroke="red" stroke-width="0.12" d="M55.01,-145.02C60.5,-141.85 66.71,-138.64 72.71,-136.35 147.26,-107.84 240.93,-92.98 286.8,-86.96"/>
<polygon fill="red" stroke="red" stroke-width="0.12" points="287.21,-90.44 296.69,-85.7 286.33,-83.49 287.21,-90.44"/>
</g>
</g>
</svg>
