<?xml version="1.0" encoding="UTF-8" standalone="no"?>
<!DOCTYPE svg PUBLIC "-//W3C//DTD SVG 1.1//EN"
 "http://www.w3.org/Graphics/SVG/1.1/DTD/svg11.dtd">
<!-- Generated by graphviz version 12.2.1 (20241206.2353)
 -->
<!-- Pages: 1 -->
<svg width="522pt" height="241pt"
 viewBox="0.00 0.00 522.09 240.57" xmlns="http://www.w3.org/2000/svg" xmlns:xlink="http://www.w3.org/1999/xlink">
<g id="graph0" class="graph" transform="scale(1 1) rotate(0) translate(4 236.57)">
<polygon fill="white" stroke="none" points="-4,4 -4,-236.57 518.09,-236.57 518.09,4 -4,4"/>
<!-- &#45;1 -->
<g id="node1" class="node">
<title>&#45;1</title>
<polygon fill="lightgray" stroke="black" points="264.98,-232.57 241.48,-232.57 241.48,-214.07 264.98,-214.07 264.98,-232.57"/>
<text text-anchor="middle" x="253.23" y="-220.02" font-family="Times,serif" font-size="9.00">&#45;1</text>
</g>
<!-- 70 -->
<g id="node10" class="node">
<title>70</title>
<ellipse fill="white" stroke="black" cx="112.23" cy="-82.67" rx="17.68" ry="17.68"/>
<text text-anchor="middle" x="112.23" y="-79.37" font-family="Times,serif" font-size="9.00">70</text>
</g>
<!-- &#45;1&#45;&gt;70 -->
<g id="edge1" class="edge">
<title>&#45;1&#45;&gt;70</title>
<path fill="none" stroke="red" stroke-width="0.61" d="M241.26,-222.09C196.3,-220.95 38.58,-214.39 8.23,-178.07 -3.65,-163.84 -1.47,-152.14 8.23,-136.35 24.68,-109.58 59.42,-95.9 84.22,-89.29"/>
<polygon fill="red" stroke="red" stroke-width="0.61" points="85.02,-92.69 93.92,-86.94 83.38,-85.89 85.02,-92.69"/>
</g>
<!-- 72 -->
<g id="node11" class="node">
<title>72</title>
<ellipse fill="white" stroke="black" cx="366.23" cy="-82.67" rx="17.68" ry="17.68"/>
<text text-anchor="middle" x="366.23" y="-79.37" font-family="Times,serif" font-size="9.00">72</text>
</g>
<!-- &#45;1&#45;&gt;72 -->
<g id="edge2" class="edge">
<title>&#45;1&#45;&gt;72</title>
<path fill="none" stroke="red" stroke-width="0.17" d="M265.14,-222.59C292.23,-222.49 358.39,-217.97 387.23,-178.07 402.42,-157.06 391.66,-127.07 380.72,-106.56"/>
<polygon fill="red" stroke="red" stroke-width="0.17" points="383.89,-105.06 375.9,-98.1 377.81,-108.53 383.89,-105.06"/>
</g>
<!-- 73 -->
<g id="node12" class="node">
<title>73</title>
<ellipse fill="white" stroke="black" cx="173.23" cy="-82.67" rx="17.68" ry="17.68"/>
<text text-anchor="middle" x="173.23" y="-79.37" font-family="Times,serif" font-size="9.00">73</text>
</g>
<!-- &#45;1&#45;&gt;73 -->
<g id="edge3" class="edge">
<title>&#45;1&#45;&gt;73</title>
<path fill="none" stroke="red" stroke-width="0.12" stroke-dasharray="1,5" d="M249.21,-213.58C241.86,-197.82 225.51,-163.73 209.23,-136.35 203.14,-126.1 195.81,-115.16 189.36,-105.92"/>
<polygon fill="red" stroke="red" stroke-width="0.12" points="192.25,-103.95 183.62,-97.81 186.54,-107.99 192.25,-103.95"/>
</g>
<!-- 154 -->
<g id="node14" class="node">
<title>154</title>
<ellipse fill="white" stroke="black" cx="277.23" cy="-157.21" rx="20.86" ry="20.86"/>
<text text-anchor="middle" x="277.23" y="-153.91" font-family="Times,serif" font-size="9.00">154</text>
</g>
<!-- &#45;1&#45;&gt;154 -->
<g id="edge24" class="edge">
<title>&#45;1&#45;&gt;154</title>
<path fill="none" stroke="red" stroke-width="0.44" d="M256.47,-213.67C259.05,-206.77 262.83,-196.69 266.45,-187.01"/>
<polygon fill="red" stroke="red" stroke-width="0.44" points="269.66,-188.43 269.89,-177.84 263.1,-185.97 269.66,-188.43"/>
</g>
<!-- &#45;2 -->
<g id="node2" class="node">
<title>&#45;2</title>
<polygon fill="lightgray" stroke="black" points="73.98,-166.46 50.48,-166.46 50.48,-147.96 73.98,-147.96 73.98,-166.46"/>
<text text-anchor="middle" x="62.23" y="-153.91" font-family="Times,serif" font-size="9.00">&#45;2</text>
</g>
<!-- &#45;2&#45;&gt;70 -->
<g id="edge4" class="edge">
<title>&#45;2&#45;&gt;70</title>
<path fill="none" stroke="red" stroke-width="0.34" d="M68.17,-147.6C75.13,-137.5 86.94,-120.36 96.59,-106.37"/>
<polygon fill="red" stroke="red" stroke-width="0.34" points="99.45,-108.38 102.24,-98.16 93.69,-104.41 99.45,-108.38"/>
</g>
<!-- &#45;2&#45;&gt;73 -->
<g id="edge5" class="edge">
<title>&#45;2&#45;&gt;73</title>
<path fill="none" stroke="red" stroke-width="0.32" d="M70.43,-147.63C74.16,-143.94 78.74,-139.72 83.23,-136.35 103.98,-120.78 129.69,-106.14 148.31,-96.27"/>
<polygon fill="red" stroke="red" stroke-width="0.32" points="149.93,-99.37 157.17,-91.65 146.69,-93.17 149.93,-99.37"/>
</g>
<!-- &#45;3 -->
<g id="node3" class="node">
<title>&#45;3</title>
<polygon fill="lightgray" stroke="black" points="115.98,-166.46 92.48,-166.46 92.48,-147.96 115.98,-147.96 115.98,-166.46"/>
<text text-anchor="middle" x="104.23" y="-153.91" font-family="Times,serif" font-size="9.00">&#45;3</text>
</g>
<!-- &#45;3&#45;&gt;70 -->
<g id="edge6" class="edge">
<title>&#45;3&#45;&gt;70</title>
<path fill="none" stroke="green" stroke-width="0.26" stroke-dasharray="1,5" d="M105.18,-147.6C106.19,-138.48 107.83,-123.61 109.27,-110.51"/>
<polygon fill="green" stroke="green" stroke-width="0.26" points="112.72,-111.24 110.33,-100.92 105.76,-110.47 112.72,-111.24"/>
</g>
<!-- &#45;3&#45;&gt;72 -->
<g id="edge7" class="edge">
<title>&#45;3&#45;&gt;72</title>
<path fill="none" stroke="green" stroke-width="0.23" d="M111.21,-147.73C114.96,-143.7 119.91,-139.16 125.23,-136.35 195.69,-99.1 291.05,-88.17 337.89,-84.98"/>
<polygon fill="green" stroke="green" stroke-width="0.23" points="338.06,-88.47 347.83,-84.37 337.63,-81.48 338.06,-88.47"/>
</g>
<!-- &#45;3&#45;&gt;73 -->
<g id="edge8" class="edge">
<title>&#45;3&#45;&gt;73</title>
<path fill="none" stroke="green" stroke-width="0.55" d="M112.42,-147.6C122.66,-136.83 140.52,-118.06 154.24,-103.64"/>
<polygon fill="green" stroke="green" stroke-width="0.55" points="156.43,-106.41 160.79,-96.75 151.36,-101.58 156.43,-106.41"/>
</g>
<!-- &#45;4 -->
<g id="node4" class="node">
<title>&#45;4</title>
<polygon fill="lightgray" stroke="black" points="377.98,-166.46 354.48,-166.46 354.48,-147.96 377.98,-147.96 377.98,-166.46"/>
<text text-anchor="middle" x="366.23" y="-153.91" font-family="Times,serif" font-size="9.00">&#45;4</text>
</g>
<!-- &#45;4&#45;&gt;72 -->
<g id="edge9" class="edge">
<title>&#45;4&#45;&gt;72</title>
<path fill="none" stroke="red" stroke-width="0.68" stroke-dasharray="1,5" d="M366.23,-147.6C366.23,-138.72 366.23,-124.39 366.23,-111.54"/>
<polygon fill="red" stroke="red" stroke-width="0.68" points="369.73,-111.84 366.23,-101.84 362.73,-111.84 369.73,-111.84"/>
</g>
<!-- &#45;4&#45;&gt;73 -->
<g id="edge10" class="edge">
<title>&#45;4&#45;&gt;73</title>
<path fill="none" stroke="red" stroke-width="0.38" d="M356.66,-147.61C351.97,-143.75 346.08,-139.38 340.23,-136.35 293.98,-112.33 234.78,-96.85 200.72,-89.25"/>
<polygon fill="red" stroke="red" stroke-width="0.38" points="201.67,-85.88 191.16,-87.18 200.19,-92.72 201.67,-85.88"/>
</g>
<!-- &#45;5 -->
<g id="node5" class="node">
<title>&#45;5</title>
<polygon fill="lightgray" stroke="black" points="396.98,-232.57 373.48,-232.57 373.48,-214.07 396.98,-214.07 396.98,-232.57"/>
<text text-anchor="middle" x="385.23" y="-220.02" font-family="Times,serif" font-size="9.00">&#45;5</text>
</g>
<!-- &#45;5&#45;&gt;70 -->
<g id="edge11" class="edge">
<title>&#45;5&#45;&gt;70</title>
<path fill="none" stroke="green" stroke-width="0.17" stroke-dasharray="1,5" d="M373.03,-221.2C313.12,-215.66 52.49,-190.87 41.23,-178.07 28.99,-164.14 32.9,-152.91 41.23,-136.35 50.75,-117.44 70.62,-103.61 86.93,-94.88"/>
<polygon fill="green" stroke="green" stroke-width="0.17" points="88.41,-98.06 95.78,-90.45 85.27,-91.8 88.41,-98.06"/>
</g>
<!-- &#45;5&#45;&gt;72 -->
<g id="edge12" class="edge">
<title>&#45;5&#45;&gt;72</title>
<path fill="none" stroke="red" stroke-width="0.38" stroke-dasharray="1,5" d="M395.12,-213.63C403.62,-205.43 415.28,-192.31 420.23,-178.07 426.32,-160.55 427.44,-153.43 420.23,-136.35 413.89,-121.29 400.91,-108.4 389.27,-99.14"/>
<polygon fill="red" stroke="red" stroke-width="0.38" points="391.7,-96.59 381.6,-93.41 387.51,-102.2 391.7,-96.59"/>
</g>
<!-- &#45;5&#45;&gt;73 -->
<g id="edge13" class="edge">
<title>&#45;5&#45;&gt;73</title>
<path fill="none" stroke="red" stroke-width="0.11" d="M377.53,-213.8C357.95,-192.16 307.77,-136.72 307.23,-136.35 273.71,-113.2 228.56,-98.17 200.17,-90.31"/>
<polygon fill="red" stroke="red" stroke-width="0.11" points="201.25,-86.98 190.68,-87.78 199.44,-93.74 201.25,-86.98"/>
</g>
<!-- 211 -->
<g id="node13" class="node">
<title>211</title>
<ellipse fill="white" stroke="black" cx="493.23" cy="-157.21" rx="20.86" ry="20.86"/>
<text text-anchor="middle" x="493.23" y="-153.91" font-family="Times,serif" font-size="9.00">211</text>
</g>
<!-- &#45;5&#45;&gt;211 -->
<g id="edge26" class="edge">
<title>&#45;5&#45;&gt;211</title>
<path fill="none" stroke="green" stroke-width="0.5" d="M397.21,-215.21C413.76,-205.38 444.1,-187.37 466.26,-174.22"/>
<polygon fill="green" stroke="green" stroke-width="0.5" points="468.03,-177.24 474.84,-169.13 464.45,-171.22 468.03,-177.24"/>
</g>
<!-- &#45;6 -->
<g id="node6" class="node">
<title>&#45;6</title>
<polygon fill="lightgray" stroke="black" points="157.98,-166.46 134.48,-166.46 134.48,-147.96 157.98,-147.96 157.98,-166.46"/>
<text text-anchor="middle" x="146.23" y="-153.91" font-family="Times,serif" font-size="9.00">&#45;6</text>
</g>
<!-- &#45;6&#45;&gt;70 -->
<g id="edge14" class="edge">
<title>&#45;6&#45;&gt;70</title>
<path fill="none" stroke="green" stroke-width="0.56" d="M142.2,-147.6C137.74,-138.09 130.36,-122.33 124.03,-108.84"/>
<polygon fill="green" stroke="green" stroke-width="0.56" points="127.25,-107.45 119.83,-99.88 120.91,-110.42 127.25,-107.45"/>
</g>
<!-- &#45;6&#45;&gt;72 -->
<g id="edge15" class="edge">
<title>&#45;6&#45;&gt;72</title>
<path fill="none" stroke="red" stroke-width="0.14" d="M153.26,-147.83C157.03,-143.82 161.97,-139.28 167.23,-136.35 223.15,-105.21 298.22,-91.86 338.28,-86.64"/>
<polygon fill="red" stroke="red" stroke-width="0.14" points="338.65,-90.12 348.16,-85.44 337.8,-83.18 338.65,-90.12"/>
</g>
<!-- &#45;6&#45;&gt;73 -->
<g id="edge16" class="edge">
<title>&#45;6&#45;&gt;73</title>
<path fill="none" stroke="green" stroke-width="0.12" d="M149.44,-147.6C152.97,-138.12 158.81,-122.42 163.82,-108.96"/>
<polygon fill="green" stroke="green" stroke-width="0.12" points="167.01,-110.44 167.21,-99.84 160.45,-108 167.01,-110.44"/>
</g>
<!-- &#45;7 -->
<g id="node7" class="node">
<title>&#45;7</title>
<polygon fill="lightgray" stroke="black" points="199.98,-166.46 176.48,-166.46 176.48,-147.96 199.98,-147.96 199.98,-166.46"/>
<text text-anchor="middle" x="188.23" y="-153.91" font-family="Times,serif" font-size="9.00">&#45;7</text>
</g>
<!-- &#45;7&#45;&gt;70 -->
<g id="edge17" class="edge">
<title>&#45;7&#45;&gt;70</title>
<path fill="none" stroke="green" stroke-width="0.32" d="M179.22,-147.6C167.7,-136.61 147.44,-117.27 132.2,-102.73"/>
<polygon fill="green" stroke="green" stroke-width="0.32" points="134.77,-100.34 125.12,-95.97 129.94,-105.41 134.77,-100.34"/>
</g>
<!-- &#45;7&#45;&gt;72 -->
<g id="edge18" class="edge">
<title>&#45;7&#45;&gt;72</title>
<path fill="none" stroke="green" stroke-width="0.44" stroke-dasharray="1,5" d="M200.47,-151.22C229.17,-139.53 301.31,-110.12 340.29,-94.24"/>
<polygon fill="green" stroke="green" stroke-width="0.44" points="341.33,-97.6 349.27,-90.58 338.69,-91.11 341.33,-97.6"/>
</g>
<!-- &#45;7&#45;&gt;73 -->
<g id="edge19" class="edge">
<title>&#45;7&#45;&gt;73</title>
<path fill="none" stroke="red" stroke-width="0.23" d="M186.46,-147.6C184.56,-138.42 181.46,-123.42 178.73,-110.26"/>
<polygon fill="red" stroke="red" stroke-width="0.23" points="182.19,-109.67 176.73,-100.59 175.33,-111.09 182.19,-109.67"/>
</g>
<!-- 0 -->
<g id="node8" class="node">
<title>0</title>
<ellipse fill="lightblue" stroke="black" cx="163.23" cy="-14.5" rx="14.5" ry="14.5"/>
<text text-anchor="middle" x="163.23" y="-11.2" font-family="Times,serif" font-size="9.00">0</text>
</g>
<!-- 1 -->
<g id="node9" class="node">
<title>1</title>
<ellipse fill="lightblue" stroke="black" cx="115.23" cy="-14.5" rx="14.5" ry="14.5"/>
<text text-anchor="middle" x="115.23" y="-11.2" font-family="Times,serif" font-size="9.00">1</text>
</g>
<!-- 70&#45;&gt;0 -->
<g id="edge20" class="edge">
<title>70&#45;&gt;0</title>
<path fill="none" stroke="green" stroke-width="0.73" d="M122.8,-67.96C130.11,-58.47 139.95,-45.7 148.1,-35.14"/>
<polygon fill="green" stroke="green" stroke-width="0.73" points="150.7,-37.49 154.03,-27.44 145.16,-33.22 150.7,-37.49"/>
</g>
<!-- 70&#45;&gt;1 -->
<g id="edge21" class="edge">
<title>70&#45;&gt;1</title>
<path fill="none" stroke="green" stroke-width="0.28" d="M113.01,-64.63C113.36,-56.96 113.77,-47.77 114.15,-39.43"/>
<polygon fill="green" stroke="green" stroke-width="0.28" points="117.64,-39.71 114.6,-29.56 110.65,-39.39 117.64,-39.71"/>
</g>
<!-- 73&#45;&gt;0 -->
<g id="edge22" class="edge">
<title>73&#45;&gt;0</title>
<path fill="none" stroke="green" stroke-width="0.31" d="M170.71,-64.97C169.54,-57.22 168.13,-47.86 166.84,-39.38"/>
<polygon fill="green" stroke="green" stroke-width="0.31" points="170.35,-39.12 165.39,-29.76 163.42,-40.17 170.35,-39.12"/>
</g>
<!-- 73&#45;&gt;1 -->
<g id="edge23" class="edge">
<title>73&#45;&gt;1</title>
<path fill="none" stroke="green" stroke-width="0.15" d="M161.78,-68.6C152.96,-58.53 140.67,-44.51 130.93,-33.41"/>
<polygon fill="green" stroke="green" stroke-width="0.15" points="133.75,-31.31 124.53,-26.1 128.49,-35.93 133.75,-31.31"/>
</g>
<!-- 211&#45;&gt;72 -->
<g id="edge27" class="edge">
<title>211&#45;&gt;72</title>
<path fill="none" stroke="green" stroke-width="0.19" d="M475.31,-145.97C453,-133.22 414.82,-111.42 390.06,-97.28"/>
<polygon fill="green" stroke="green" stroke-width="0.19" points="391.96,-94.33 381.54,-92.41 388.49,-100.41 391.96,-94.33"/>
</g>
<!-- 154&#45;&gt;73 -->
<g id="edge25" class="edge">
<title>154&#45;&gt;73</title>
<path fill="none" stroke="green" stroke-width="0.71" d="M260.53,-144.55C243.16,-132.44 215.84,-113.39 196.4,-99.82"/>
<polygon fill="green" stroke="green" stroke-width="0.71" points="198.65,-97.13 188.44,-94.28 194.64,-102.87 198.65,-97.13"/>
</g>
</g>
</svg>
